# xmcd
#
# Track frame offsets: 
#        195
#        11670
#        22650
#        34782
#        46292
#        59802
#        73780
#        87807
#        101760
#        115825
#        130812
#        144640
#        158625
#        172297
#        186132
#        200292
#        211677
#        224677
#        237950
#        252462
#        266040
#        280360
#        292455
#        302362
#
# Disc length: 4193 seconds
#
# Revision: 0
# Processed by: cddbd v1.5.2PL0 Copyright (c) Steve Scherf et al.
# Submitted via: ExactAudioCopy v0.99pb4
#
DISCID=71105f18
DTITLE=Various Artist - Rare Country Blues Vol, 4 1929-c.1953
DYEAR=1999
DGENRE=Blues
TTITLE0=01 - Papa Eggshell (1929) I`m goin` up the country - part 1
TTITLE1=02 - Papa Eggshell (1929) I`m goin` up the country - part 2
TTITLE2=03 - Papa Eggshell (1929) - Whole soul blues
TTITLE3=04 - Papa Eggshell (1929) - Far from home
TTITLE4=05 - Troy Ferguson (1929-1930) College blues
TTITLE5=06 - Troy Ferguson (1929-1930) - Mama, you gotta get it fixed
TTITLE6=07 - Troy Ferguson (1929-1930) - You better keep it at home
TTITLE7=08 - Pere Dickson (1932) Red hot papa
TTITLE8=09 - Get away from my window
TTITLE9=10 - Archie Lewis (1933) Miss Handy Hanks
TTITLE10=11 - Willie Bee (Willie B. James) (1937) - Ramblin` mind blue
TTITLE10=s 
TTITLE11=12 - Willie Bee (Willie B. James) (1937) - Can`t control my m
TTITLE11=ind
TTITLE12=13 - Frank Tannehill (1937-1941)  -  Steel mill blues
TTITLE13=14 - Frank Tannehill (1937-1941) - I. G. N. blues
TTITLE14=15 - Frank Tannehill (1937-1941) - Door bell blues
TTITLE15=16 - Frank Tannehill (1937-1941) - Do right blues
TTITLE16=17 - Frank Tannehill (1937-1941) - Warehouse blues
TTITLE17=18 - Frank Tannehill (1937-1941) - Parted down blues
TTITLE18=19 - Frank Tannehill (1937-1941) - Little Mae
TTITLE19=20 - Frank Tannehill (1937-1941) - Rolling stone blues
TTITLE20=21 - Frank Tannehill (1937-1941) - Sweet jelly roll
TTITLE21=22 - Frank Tannehill (1937-1941) - Four o` clock morning blue
TTITLE21=s
TTITLE22=23 - Robert Lee Westmoreland (c. 1953) -  Hello Central, give
TTITLE22=me 209
TTITLE23=24 - Robert Lee Westmoreland (c. 1953) - Good Looking Woman B
TTITLE23=lues 
EXTD=
EXTT0=
EXTT1=
EXTT2=
EXTT3=
EXTT4=
EXTT5=
EXTT6=
EXTT7=
EXTT8=
EXTT9=
EXTT10=
EXTT11=
EXTT12=
EXTT13=
EXTT14=
EXTT15=
EXTT16=
EXTT17=
EXTT18=
EXTT19=
EXTT20=
EXTT21=
EXTT22=
EXTT23=
PLAYORDER=
